<?xml version="1.0" encoding="UTF-8" standalone="no"?>
<!-- Created with Inkscape (http://www.inkscape.org/) -->

<svg
   width="100"
   height="53"
   viewBox="0 0 26.458333 14.022917"
   version="1.1"
   id="svg1"
   xml:space="preserve"
   inkscape:version="1.3.2 (091e20e, 2023-11-25)"
   sodipodi:docname="logo.svg"
   xmlns:inkscape="http://www.inkscape.org/namespaces/inkscape"
   xmlns:sodipodi="http://sodipodi.sourceforge.net/DTD/sodipodi-0.dtd"
   xmlns="http://www.w3.org/2000/svg"
   xmlns:svg="http://www.w3.org/2000/svg"><sodipodi:namedview
     id="namedview1"
     pagecolor="#ffffff"
     bordercolor="#666666"
     borderopacity="1.0"
     inkscape:showpageshadow="2"
     inkscape:pageopacity="0.0"
     inkscape:pagecheckerboard="0"
     inkscape:deskcolor="#d1d1d1"
     inkscape:document-units="mm"
     inkscape:zoom="5.793176"
     inkscape:cx="45.225624"
     inkscape:cy="37.285248"
     inkscape:window-width="1728"
     inkscape:window-height="929"
     inkscape:window-x="0"
     inkscape:window-y="38"
     inkscape:window-maximized="1"
     inkscape:current-layer="text28" /><defs
     id="defs1"><clipPath
       clipPathUnits="userSpaceOnUse"
       id="clipPath1"><rect
         style="fill:#f3fcfd;fill-opacity:0.274368;stroke:none;stroke-width:5.0011;stroke-linecap:round;stroke-linejoin:round;paint-order:markers stroke fill"
         id="rect2"
         width="77.907379"
         height="77.907379"
         x="97.443802"
         y="131.27513"
         rx="11.792719"
         ry="11.792719" /></clipPath></defs><g
     inkscape:label="Layer 1"
     inkscape:groupmode="layer"
     id="layer1"><rect
       style="fill:#1a1a1a;fill-opacity:1;stroke:none;stroke-width:1.04031;stroke-linecap:round;stroke-linejoin:round;paint-order:markers stroke fill"
       id="rect19"
       width="26.458334"
       height="14.022917"
       x="0"
       y="-1.4210855e-14" /><g
       id="g36"
       transform="matrix(0.326224,0,0,0.326224,-5.1537288,-40.836159)"><rect
         style="fill:#f9f9f9;fill-opacity:1;stroke:none;stroke-width:5.29167;stroke-linecap:round;stroke-linejoin:round;paint-order:markers stroke fill"
         id="rect20"
         width="9.536993"
         height="9.536993"
         x="28.177481"
         y="136.33565"
         rx="1.7339988"
         ry="1.7339988" /><rect
         style="fill:#f9f9f9;fill-opacity:1;stroke:none;stroke-width:5.29167;stroke-linecap:round;stroke-linejoin:round;paint-order:markers stroke fill"
         id="rect21"
         width="9.536993"
         height="9.536993"
         x="39.054131"
         y="136.33565"
         rx="1.7339988"
         ry="1.7339988" /><rect
         style="fill:#f9f9f9;fill-opacity:1;stroke:none;stroke-width:5.29167;stroke-linecap:round;stroke-linejoin:round;paint-order:markers stroke fill"
         id="rect22"
         width="9.536993"
         height="9.536993"
         x="60.807426"
         y="136.33565"
         rx="1.7339988"
         ry="1.7339988" /><rect
         style="fill:#f9f9f9;fill-opacity:1;stroke:none;stroke-width:5.29167;stroke-linecap:round;stroke-linejoin:round;paint-order:markers stroke fill"
         id="rect23"
         width="9.536993"
         height="9.536993"
         x="49.930779"
         y="136.33565"
         rx="1.7339988"
         ry="1.7339988" /><rect
         style="fill:#f9f9f9;fill-opacity:1;stroke:none;stroke-width:5.29167;stroke-linecap:round;stroke-linejoin:round;paint-order:markers stroke fill"
         id="rect24"
         width="9.536993"
         height="9.536993"
         x="71.684074"
         y="136.33565"
         rx="1.7339988"
         ry="1.7339988" /><rect
         style="fill:#1a1a1a;fill-opacity:1;stroke:#1a1a1a;stroke-width:1.1667;stroke-linecap:round;stroke-linejoin:round;stroke-dasharray:none;stroke-opacity:1;paint-order:markers stroke fill"
         id="rect35"
         width="7.5957317"
         height="28.912783"
         x="156.64551"
         y="30.351721"
         transform="rotate(45)" /><rect
         style="fill:#ffffff;fill-opacity:1;stroke:none;stroke-width:0.878479;stroke-linecap:round;stroke-linejoin:round;stroke-dasharray:none;stroke-opacity:1;paint-order:markers stroke fill"
         id="rect36"
         width="43.966381"
         height="1.3882769"
         x="29.093275"
         y="153.17862"
         rx="0"
         ry="0" /><rect
         style="fill:#f9f9f9;fill-opacity:1;stroke:none;stroke-width:5.29167;stroke-linecap:round;stroke-linejoin:round;paint-order:markers stroke fill"
         id="rect25"
         width="9.536993"
         height="9.536993"
         x="28.177481"
         y="146.91899"
         rx="1.7339988"
         ry="1.7339988" /><rect
         style="fill:#f9f9f9;fill-opacity:1;stroke:none;stroke-width:5.29167;stroke-linecap:round;stroke-linejoin:round;paint-order:markers stroke fill"
         id="rect26"
         width="9.536993"
         height="9.536993"
         x="39.054131"
         y="146.91899"
         rx="1.7339988"
         ry="1.7339988" /><rect
         style="fill:#f9f9f9;fill-opacity:1;stroke:none;stroke-width:5.29167;stroke-linecap:round;stroke-linejoin:round;paint-order:markers stroke fill"
         id="rect27"
         width="9.536993"
         height="9.536993"
         x="60.807426"
         y="146.91899"
         rx="1.7339988"
         ry="1.7339988" /><rect
         style="fill:#f9f9f9;fill-opacity:1;stroke:none;stroke-width:5.29167;stroke-linecap:round;stroke-linejoin:round;paint-order:markers stroke fill"
         id="rect28"
         width="9.536993"
         height="9.536993"
         x="49.930779"
         y="146.91899"
         rx="1.7339988"
         ry="1.7339988" /><g
         id="text28"
         style="font-size:8.46667px;line-height:1.25;stroke-width:0.264583"
         aria-label="CR O  S  S&#10;B  U  Z  Z"><path
           d="m 35.285555,144.02538 q -0.227376,0.0992 -0.413411,0.18603 -0.181902,0.0868 -0.479558,0.1819 -0.252181,0.0785 -0.549837,0.1323 -0.293523,0.0579 -0.649057,0.0579 -0.669726,0 -1.219564,-0.18603 -0.545703,-0.19017 -0.950847,-0.59118 -0.396875,-0.39274 -0.620117,-0.99632 -0.223242,-0.60772 -0.223242,-1.40974 0,-0.76067 0.214974,-1.36012 0.214974,-0.59945 0.620117,-1.01286 0.392741,-0.40101 0.946713,-0.61185 0.558105,-0.21084 1.236101,-0.21084 0.496093,0 0.988053,0.11989 0.496094,0.11989 1.099675,0.42168 v 0.97152 h -0.06201 q -0.508496,-0.42581 -1.008724,-0.62012 -0.500228,-0.1943 -1.070736,-0.1943 -0.467155,0 -0.84336,0.15296 -0.37207,0.14883 -0.665592,0.46716 -0.285254,0.31005 -0.446485,0.78548 -0.157096,0.47129 -0.157096,1.0914 0,0.64906 0.173632,1.11622 0.177767,0.46715 0.454753,0.76067 0.289388,0.30593 0.673861,0.45476 0.388607,0.14469 0.818555,0.14469 0.591179,0 1.107943,-0.20257 0.516765,-0.20257 0.967384,-0.60772 h 0.05788 z m 11.051511,0.44648 h -1.062468 l -2.05879,-2.44739 H 42.06239 v 2.44739 h -0.818555 v -6.1557 h 1.723926 q 0.558106,0 0.930176,0.0744 0.372071,0.0703 0.669727,0.25631 0.334863,0.21084 0.520899,0.5333 0.190169,0.31833 0.190169,0.81029 0,0.66559 -0.334863,1.11621 -0.334864,0.44649 -0.921908,0.67386 z m -1.914096,-4.4235 q 0,-0.26459 -0.09508,-0.46716 -0.09095,-0.2067 -0.305924,-0.34726 -0.177767,-0.11989 -0.42168,-0.16537 -0.243913,-0.0496 -0.574642,-0.0496 H 42.06239 v 2.32338 h 0.826823 q 0.388607,0 0.677995,-0.0661 0.289388,-0.0703 0.49196,-0.25631 0.186035,-0.17364 0.272851,-0.39688 0.09095,-0.22738 0.09095,-0.57464 z m 12.073552,-1.17529 q 0.376204,0.41342 0.574642,1.01286 0.202572,0.59945 0.202572,1.36013 0,0.76067 -0.206706,1.36426 -0.202572,0.59944 -0.570508,1.00045 -0.380339,0.41755 -0.901237,0.62839 -0.516765,0.21084 -1.182358,0.21084 -0.649056,0 -1.182357,-0.21498 -0.529167,-0.21497 -0.901237,-0.62425 -0.372071,-0.40928 -0.574642,-1.00459 -0.198438,-0.59531 -0.198438,-1.36012 0,-0.75241 0.198438,-1.34772 0.198437,-0.59945 0.578776,-1.02527 0.363802,-0.40514 0.901237,-0.62011 0.541569,-0.21498 1.178223,-0.21498 0.661459,0 1.186492,0.21911 0.529167,0.21498 0.897103,0.61598 z m -0.07441,2.37299 q 0,-1.1989 -0.537435,-1.84795 -0.537435,-0.65319 -1.467612,-0.65319 -0.938444,0 -1.475879,0.65319 -0.533301,0.64905 -0.533301,1.84795 0,1.21129 0.545703,1.85622 0.545704,0.64078 1.463477,0.64078 0.917774,0 1.459343,-0.64078 0.545704,-0.64493 0.545704,-1.85622 z m 11.675845,1.4688 q 0,0.35967 -0.169499,0.71107 -0.165365,0.3514 -0.467155,0.59531 -0.33073,0.26459 -0.77308,0.41342 -0.438216,0.14882 -1.058334,0.14882 -0.665593,0 -1.198893,-0.12402 -0.529167,-0.12402 -1.079005,-0.36794 v -1.02526 h 0.05788 q 0.467155,0.38861 1.079004,0.59945 0.611849,0.21084 1.149284,0.21084 0.760678,0 1.182358,-0.28525 0.425814,-0.28526 0.425814,-0.76068 0,-0.40928 -0.202572,-0.60358 -0.198438,-0.19431 -0.607715,-0.30179 -0.310059,-0.0827 -0.673861,-0.13643 -0.359668,-0.0537 -0.764812,-0.13642 -0.818555,-0.17364 -1.21543,-0.59118 -0.392741,-0.42168 -0.392741,-1.09554 0,-0.77308 0.653191,-1.26504 0.65319,-0.4961 1.65778,-0.4961 0.649056,0 1.190626,0.12403 0.541569,0.12402 0.959115,0.30592 v 0.96738 h -0.05788 q -0.3514,-0.29765 -0.926042,-0.49196 -0.570508,-0.19843 -1.169955,-0.19843 -0.657324,0 -1.058334,0.27285 -0.396875,0.27285 -0.396875,0.7028 0,0.38447 0.198438,0.60358 0.198437,0.21911 0.698665,0.33486 0.264584,0.0579 0.75241,0.14056 0.487825,0.0827 0.826823,0.1695 0.686263,0.1819 1.033529,0.54984 0.347266,0.36793 0.347266,1.02939 z m 10.840751,0 q 0,0.35967 -0.169499,0.71107 -0.165364,0.3514 -0.467155,0.59531 -0.330729,0.26459 -0.773079,0.41342 -0.438217,0.14882 -1.058334,0.14882 -0.665593,0 -1.198894,-0.12402 -0.529167,-0.12402 -1.079004,-0.36794 v -1.02526 h 0.05788 q 0.467156,0.38861 1.079005,0.59945 0.611849,0.21084 1.149284,0.21084 0.760677,0 1.182357,-0.28525 0.425814,-0.28526 0.425814,-0.76068 0,-0.40928 -0.202571,-0.60358 -0.198438,-0.19431 -0.607715,-0.30179 -0.310059,-0.0827 -0.673861,-0.13643 -0.359669,-0.0537 -0.764812,-0.13642 -0.818555,-0.17364 -1.21543,-0.59118 -0.392741,-0.42168 -0.392741,-1.09554 0,-0.77308 0.65319,-1.26504 0.653191,-0.4961 1.657781,-0.4961 0.649056,0 1.190625,0.12403 0.54157,0.12402 0.959115,0.30592 v 0.96738 h -0.05788 q -0.3514,-0.29765 -0.926042,-0.49196 -0.570508,-0.19843 -1.169955,-0.19843 -0.657325,0 -1.058334,0.27285 -0.396875,0.27285 -0.396875,0.7028 0,0.38447 0.198437,0.60358 0.198438,0.21911 0.698666,0.33486 0.264583,0.0579 0.752409,0.14056 0.487826,0.0827 0.826823,0.1695 0.686264,0.1819 1.033529,0.54984 0.347266,0.36793 0.347266,1.02939 z"
           id="path36" /><path
           d="m 35.173934,153.16178 q 0,0.45888 -0.173633,0.81028 -0.173633,0.3514 -0.467155,0.57878 -0.347266,0.27285 -0.764811,0.38861 -0.413412,0.11575 -1.0542,0.11575 h -2.182813 v -6.1557 h 1.823145 q 0.673861,0 1.008724,0.0496 0.334864,0.0496 0.640788,0.20671 0.338998,0.17776 0.49196,0.45888 0.152962,0.27699 0.152962,0.6656 0,0.43821 -0.223242,0.74827 -0.223242,0.30593 -0.595313,0.49196 v 0.0331 q 0.624252,0.12816 0.98392,0.54984 0.359668,0.41755 0.359668,1.05834 z m -1.376661,-2.774 q 0,-0.22324 -0.07441,-0.3762 -0.07441,-0.15296 -0.239778,-0.24805 -0.194304,-0.11162 -0.47129,-0.13642 -0.276986,-0.0289 -0.686263,-0.0289 h -0.975651 v 1.77767 h 1.058333 q 0.384473,0 0.61185,-0.0372 0.227376,-0.0413 0.421679,-0.16536 0.194304,-0.12403 0.272852,-0.31833 0.08268,-0.19844 0.08268,-0.46716 z m 0.525033,2.80707 q 0,-0.37207 -0.111621,-0.59118 -0.111621,-0.21911 -0.405143,-0.37207 -0.198438,-0.10335 -0.483692,-0.13229 -0.28112,-0.0331 -0.686263,-0.0331 h -1.28571 v 2.2903 h 1.083138 q 0.537435,0 0.880567,-0.0537 0.343131,-0.0579 0.56224,-0.2067 0.23151,-0.16124 0.338997,-0.36794 0.107487,-0.20671 0.107487,-0.5333 z M 46.323002,152.583 q 0,0.66973 -0.148828,1.16995 -0.144694,0.4961 -0.479558,0.82683 -0.318327,0.31419 -0.744141,0.45888 -0.425813,0.1447 -0.992187,0.1447 -0.578777,0 -1.008725,-0.15296 -0.429948,-0.15297 -0.72347,-0.45062 -0.334864,-0.339 -0.483692,-0.81856 -0.144694,-0.47956 -0.144694,-1.17822 v -3.6835 h 0.818555 v 3.72484 q 0,0.50023 0.06615,0.78962 0.07028,0.28938 0.231511,0.52503 0.181901,0.26872 0.491959,0.40514 0.314193,0.13643 0.75241,0.13643 0.44235,0 0.752409,-0.13229 0.310058,-0.13643 0.496094,-0.40928 0.16123,-0.23565 0.227376,-0.53744 0.07028,-0.30592 0.07028,-0.75654 v -3.74551 h 0.818555 z m 10.663536,2.4722 h -4.803843 v -0.76068 l 3.774448,-4.66741 h -3.633888 v -0.72761 h 4.572333 v 0.74001 l -3.811655,4.68809 h 3.902605 z m 11.003182,0 h -4.803843 v -0.76068 l 3.774448,-4.66741 h -3.633888 v -0.72761 h 4.572332 v 0.74001 l -3.811655,4.68809 h 3.902606 z"
           id="path37" /></g><rect
         style="fill:#f9f9f9;fill-opacity:1;stroke:none;stroke-width:5.29167;stroke-linecap:round;stroke-linejoin:round;paint-order:markers stroke fill"
         id="rect29"
         width="1.5002271"
         height="2.5503862"
         x="42.756474"
         y="144.92194"
         rx="1.7339988"
         ry="1.7339988" /><g
         id="g35"
         transform="matrix(0.38495913,0.38495913,-0.38495913,0.38495913,102.84618,52.557274)"><path
           id="rect31-7"
           style="fill:#1a1a1a;stroke:#1a1a1a;stroke-width:4.59209;stroke-linecap:round;stroke-linejoin:round;stroke-dasharray:none;paint-order:markers stroke fill"
           d="m 89.444963,165.5213 h 7.088905 l -3.544449,5.56757 z"
           sodipodi:nodetypes="cccc" /><path
           id="rect31"
           style="fill:#808080;stroke:#808080;stroke-width:1.45787;stroke-linecap:round;stroke-linejoin:round;stroke-dasharray:none;paint-order:markers stroke fill"
           d="m 89.394616,165.48362 h 7.088905 l -3.544449,5.56757 z"
           sodipodi:nodetypes="cccc" /><rect
           style="fill:#f9f9f9;fill-opacity:1;stroke:#ffffff;stroke-width:1.76562;stroke-linecap:round;stroke-linejoin:round;stroke-dasharray:none;paint-order:markers stroke fill"
           id="rect32"
           width="9.5357885"
           height="22.250174"
           x="87.984779"
           y="139.7896" /><g
           id="rect33"><path
             style="color:#000000;fill:#f9f9f9;stroke:#ffffff;stroke-width:2;stroke-linecap:round;stroke-linejoin:round;stroke-dasharray:none;stroke-opacity:1;paint-order:markers stroke fill"
             d="m 90.946606,130.26457 h 3.834917 c 1.57914,0 2.85043,1.2713 2.85043,2.85044 v 2.79097 h -9.535784 v -2.79097 c 0,-1.57914 1.27129,-2.85044 2.850437,-2.85044 z"
             id="path35"
             sodipodi:nodetypes="sssccss" /></g></g></g></g></svg>
